<svg width="368" height="298" viewBox="0 0 368 298" fill="none" xmlns="http://www.w3.org/2000/svg">
<path d="M189.851 16.1779V7.31745C189.851 5.35298 188.146 3.79177 186.196 4.01374C112.934 12.3266 56.0347 74.5088 56.0347 149.994H47.1743C45.2098 149.994 43.6449 151.7 43.8706 153.653C52.1835 226.908 114.369 283.815 189.851 283.815V292.675C189.851 294.64 191.557 296.201 193.506 295.979C266.765 287.666 323.668 225.48 323.668 149.994H332.528C334.493 149.994 336.058 148.293 335.836 146.339C327.523 73.0844 265.337 16.1779 189.851 16.1779" fill="#B880FF"/>
<path d="M189.851 16.1779V7.31745C189.851 5.35298 188.146 3.79177 186.196 4.01374C112.934 12.3266 56.0347 74.5088 56.0347 149.994H47.1743C45.2098 149.994 43.6449 151.7 43.8706 153.653C52.1835 226.908 114.369 283.815 189.851 283.815V292.675C189.851 294.64 191.557 296.201 193.506 295.979C266.765 287.666 323.668 225.48 323.668 149.994H332.528C334.493 149.994 336.058 148.293 335.836 146.339C327.523 73.0844 265.337 16.1779 189.851 16.1779" stroke="white" stroke-width="2" stroke-linecap="round" stroke-linejoin="round"/>
<path d="M139.212 98.1415C135.02 98.6853 131.365 97.975 128.091 95.9921C127.947 95.9033 127.913 95.8293 127.969 95.6739C129.256 92.1519 131.876 89.7435 135.879 88.5597C140.877 87.0835 146.877 88.9592 149.249 93.6022C149.249 93.6022 149.338 93.5023 149.249 93.6022C147.088 95.9736 144.084 96.9835 140.784 97.8159C140.214 97.9602 139.626 98.0564 139.212 98.1415Z" fill="#B880FF"/>
<path d="M142.671 80.5021C143.085 83.3878 140.725 86.1292 137.417 86.6064C134.073 87.0873 131.047 85.1377 130.621 82.2261C130.2 79.3516 132.571 76.5954 135.875 76.1219C139.212 75.6409 142.253 77.6017 142.671 80.5021Z" fill="#B880FF"/>
<path d="M80.8106 4.39851C80.8106 4.39851 47.1928 2.0012 44.8177 4.14694C44.026 4.86465 34.174 13.6067 32.2725 44.1946C30.6928 69.5329 36.4012 79.3108 38.632 80.2542C41.5288 81.4787 71.5322 83.987 71.5322 83.987L80.8106 4.39851Z" fill="white" stroke="black" stroke-width="1.2" stroke-linecap="round" stroke-linejoin="round"/>
<path d="M51.906 74.0945C55.8515 74.0945 59.0499 71.2058 59.0499 67.6424C59.0499 64.0791 55.8515 61.1904 51.906 61.1904C47.9606 61.1904 44.7622 64.0791 44.7622 67.6424C44.7622 71.2058 47.9606 74.0945 51.906 74.0945Z" fill="#B880FF"/>
<path d="M80.8106 4.39858C108.306 4.25799 159.585 6.94017 193.24 28.8452C222.278 47.7463 217.128 56.148 213.913 57.7388C210.698 59.3296 202.445 60.3507 193.24 56.1887C184.032 52.023 163.714 59.644 163.714 59.644C163.714 59.644 145.679 60.3174 133.87 63.4546C133.87 63.4546 176.096 81.871 169.43 92.3481C164.583 99.9618 141.665 92.0299 98.8015 87.0725C86.5264 85.6519 71.5321 83.9871 71.5321 83.9871C71.5321 83.9871 66.2454 73.743 66.8818 47.4873C67.5181 21.2279 80.818 4.40228 80.818 4.40228L80.8106 4.39858Z" fill="#B880FF"/>
<path d="M77.5 8.49988C179.386 10.2461 199.067 32.8184 199.067 32.8184C182 20 150 8 112.5 5.49986C80 3.99998 80.5 4.4999 80.5 4.4999L77.5 8.49988Z" fill="white"/>
<path d="M80.8106 4.39858C108.306 4.25799 159.585 6.94017 193.24 28.8452C222.278 47.7463 217.128 56.148 213.913 57.7388C210.698 59.3296 202.445 60.3507 193.24 56.1887C184.032 52.023 163.714 59.644 163.714 59.644C163.714 59.644 145.679 60.3174 133.87 63.4546C133.87 63.4546 176.096 81.871 169.43 92.3481C164.583 99.9618 141.665 92.0299 98.8015 87.0725C86.5264 85.6519 71.5321 83.9871 71.5321 83.9871C71.5321 83.9871 66.2454 73.743 66.8818 47.4873C67.5181 21.2279 80.818 4.40228 80.818 4.40228L80.8106 4.39858Z" stroke="black" stroke-width="1.2" stroke-linecap="round" stroke-linejoin="round"/>
<path d="M125.679 48.7266C137.458 54.5645 145.967 61.1867 145.967 61.1867L156.178 60.1138C156.178 60.1138 146.163 55.8704 138.964 52.5445C130.696 48.7266 125.683 48.7266 125.683 48.7266H125.679Z" fill="black"/>
<path d="M267.986 265.543C267.986 265.543 298.278 267.13 301.641 264.274C306.498 260.145 309.166 218.455 303.864 214.126C298.563 209.798 265.907 214.126 265.907 214.126L267.986 265.543V265.543Z" fill="white"/>
<path d="M266.887 224.082C286.336 224.082 306.768 227.415 306.768 227.415C306.768 227.415 307.349 216.997 303.857 214.123C300.364 211.248 292.688 209.369 292.24 210.945C291.793 212.521 265.899 214.123 265.899 214.123L266.884 224.078L266.887 224.082Z" fill="#B880FF"/>
<path d="M267.986 265.543C267.986 265.543 298.278 267.13 301.641 264.274C306.498 260.145 309.166 218.455 303.864 214.126C298.563 209.798 265.907 214.126 265.907 214.126L267.986 265.543V265.543Z" stroke="black" stroke-width="1.2" stroke-linecap="round" stroke-linejoin="round"/>
<path d="M231.471 238.236C231.471 238.236 173.655 232.136 178.116 219.646C182.578 207.156 265.903 210.945 265.903 210.945C265.903 210.945 267.668 232.202 267.982 244.903C268.3 257.603 267.982 265.539 267.982 265.539C267.982 265.539 232.995 267.126 181.435 251.251C129.874 235.376 117.81 219.502 117.81 219.502L175.419 216.96" fill="#B880FF"/>
<path d="M134.824 232.139C168.438 246.975 219.311 257.862 247.028 259.616C270.5 260.5 268 260.5 268 260.5L267.5 265.5C266.58 266.273 217.795 265.091 170.5 248C130.815 231.463 134.821 232.139 134.821 232.139H134.824Z" fill="white"/>
<path d="M231.471 238.236C231.471 238.236 173.655 232.136 178.116 219.646C182.578 207.156 265.903 210.945 265.903 210.945C265.903 210.945 267.668 232.202 267.982 244.903C268.3 257.603 267.982 265.539 267.982 265.539C267.982 265.539 232.995 267.126 181.435 251.251C129.874 235.376 117.81 219.502 117.81 219.502L175.419 216.96" stroke="black" stroke-width="1.2" stroke-linecap="round" stroke-linejoin="round"/>
<path d="M132.586 220.97C154.965 236.079 192.966 248.081 192.966 248.081Z" fill="#B880FF"/>
<path d="M132.586 220.97C154.965 236.079 192.966 248.081 192.966 248.081" stroke="black" stroke-width="1.2" stroke-linecap="round" stroke-linejoin="round"/>
<path d="M286.336 259.612C289.748 259.612 292.514 257.114 292.514 254.033C292.514 250.952 289.748 248.454 286.336 248.454C282.924 248.454 280.157 250.952 280.157 254.033C280.157 257.114 282.924 259.612 286.336 259.612Z" fill="#B880FF"/>
<path d="M185.682 219.428C241.76 221.895 266.891 224.082 266.891 224.082V217.067L185.682 219.428V219.428Z" fill="black"/>
<path d="M157.365 220.19C171.146 221.725 183.769 227.415 183.769 227.415C183.769 227.415 177.632 222.276 177.876 220.963C178.12 219.646 157.365 220.19 157.365 220.19V220.19Z" fill="black"/>
<path d="M297.69 48.5972H300.294L303.232 55.556C304.76 59.1816 305.237 63.1623 304.608 67.0469L284.09 193.49C283.724 195.754 282.503 197.789 280.679 199.18C278.855 200.571 276.569 201.208 274.29 200.963L297.69 48.6009V48.5972Z" fill="black" stroke="black" stroke-width="1.2" stroke-linecap="round" stroke-linejoin="round"/>
<path d="M123.415 172.732L141.89 58.8671C142.208 56.899 143.189 55.0973 144.669 53.758C146.148 52.4188 148.039 51.6271 150.029 51.505L290.893 42.9479C292.344 42.8592 293.794 43.0996 295.137 43.6472C296.48 44.1947 297.686 45.0382 298.659 46.1185C299.632 47.195 300.353 48.4788 300.764 49.8698C301.175 51.2608 301.267 52.7296 301.034 54.1613L277.131 201.503L123.411 172.728L123.415 172.732Z" fill="#B880FF"/>
<path d="M233.499 254.422L64.8324 205.288C64.0888 205.07 63.4377 204.619 62.9752 203.997C62.5128 203.379 62.2612 202.625 62.2612 201.851V198.207L277.131 201.496L276.295 206.716C275.825 209.613 274.612 212.34 272.77 214.622L243.162 251.381C242.03 252.783 240.509 253.823 238.793 254.363C237.073 254.903 235.234 254.925 233.503 254.418L233.499 254.422Z" fill="black" stroke="black" stroke-width="1.2" stroke-linecap="round" stroke-linejoin="round"/>
<path d="M232.337 247.33L63.6707 200.272C63.2822 200.168 62.9382 199.942 62.6829 199.632C62.4313 199.317 62.2834 198.936 62.2612 198.533C62.239 198.133 62.3463 197.734 62.5645 197.397C62.7828 197.06 63.101 196.801 63.4746 196.653L123.433 172.717L277.135 201.504L239.84 245.051C238.933 246.105 237.75 246.879 236.421 247.282C235.093 247.685 233.676 247.7 232.337 247.33V247.33Z" fill="black" stroke="black" stroke-width="1.2" stroke-linecap="round" stroke-linejoin="round"/>
<path d="M277.131 201.503L239.836 245.051C238.93 246.109 237.742 246.886 236.414 247.289C235.082 247.696 233.661 247.711 232.322 247.334L62.7975 199.835C62.5311 199.754 62.2832 199.62 62.0724 199.439C61.8615 199.258 61.6913 199.036 61.5692 198.784C61.4508 198.507 61.399 198.207 61.4138 197.904C61.4286 197.6 61.51 197.308 61.6506 197.042" stroke="#B880FF" stroke-width="1.2" stroke-linecap="round" stroke-linejoin="round"/>
<path d="M125.842 179.621L248.989 204.308" stroke="#B880FF" stroke-width="1.2" stroke-linecap="round" stroke-linejoin="round"/>
<path d="M120.056 182.103L245.038 208.111" stroke="#B880FF" stroke-width="1.2" stroke-linecap="round" stroke-linejoin="round"/>
<path d="M114.014 184.689L240.865 212.117" stroke="#B880FF" stroke-width="1.2" stroke-linecap="round" stroke-linejoin="round"/>
<path d="M107.699 187.397L236.451 216.361" stroke="#B880FF" stroke-width="1.2" stroke-linecap="round" stroke-linejoin="round"/>
<path d="M160.865 186.642L155.464 189.469" stroke="#B880FF" stroke-width="1.2" stroke-linecap="round" stroke-linejoin="round"/>
<path d="M148.568 184.178L143.019 186.879" stroke="#B880FF" stroke-width="1.2" stroke-linecap="round" stroke-linejoin="round"/>
<path d="M136.848 181.829L131.169 184.415" stroke="#B880FF" stroke-width="1.2" stroke-linecap="round" stroke-linejoin="round"/>
<path d="M216.647 197.826L212.078 201.248" stroke="#B880FF" stroke-width="1.2" stroke-linecap="round" stroke-linejoin="round"/>
<path d="M201.605 194.811L196.784 198.07" stroke="#B880FF" stroke-width="1.2" stroke-linecap="round" stroke-linejoin="round"/>
<path d="M187.332 191.948L182.29 195.051" stroke="#B880FF" stroke-width="1.2" stroke-linecap="round" stroke-linejoin="round"/>
<path d="M173.77 189.228L168.535 192.188" stroke="#B880FF" stroke-width="1.2" stroke-linecap="round" stroke-linejoin="round"/>
<path d="M232.514 201.008L228.238 204.611" stroke="#B880FF" stroke-width="1.2" stroke-linecap="round" stroke-linejoin="round"/>
<path d="M149.8 192.428L143.866 195.532" stroke="#B880FF" stroke-width="1.2" stroke-linecap="round" stroke-linejoin="round"/>
<path d="M137.21 189.706L131.128 192.665" stroke="#B880FF" stroke-width="1.2" stroke-linecap="round" stroke-linejoin="round"/>
<path d="M125.235 187.116L119.027 189.942" stroke="#B880FF" stroke-width="1.2" stroke-linecap="round" stroke-linejoin="round"/>
<path d="M207.269 204.855L202.204 208.655" stroke="#B880FF" stroke-width="1.2" stroke-linecap="round" stroke-linejoin="round"/>
<path d="M191.716 201.492L186.381 205.096" stroke="#B880FF" stroke-width="1.2" stroke-linecap="round" stroke-linejoin="round"/>
<path d="M176.995 198.307L171.431 201.729" stroke="#B880FF" stroke-width="1.2" stroke-linecap="round" stroke-linejoin="round"/>
<path d="M163.041 195.292L157.277 198.548" stroke="#B880FF" stroke-width="1.2" stroke-linecap="round" stroke-linejoin="round"/>
<path d="M223.728 208.414L218.967 212.425" stroke="#B880FF" stroke-width="1.2" stroke-linecap="round" stroke-linejoin="round"/>
<path d="M161.916 190.815L156.337 193.842" stroke="#B880FF" stroke-width="1.2" stroke-linecap="round" stroke-linejoin="round"/>
<path d="M149.164 188.159L143.426 191.052" stroke="#B880FF" stroke-width="1.2" stroke-linecap="round" stroke-linejoin="round"/>
<path d="M137.022 185.632L131.151 188.392" stroke="#B880FF" stroke-width="1.2" stroke-linecap="round" stroke-linejoin="round"/>
<path d="M125.45 183.224L119.46 185.866" stroke="#B880FF" stroke-width="1.2" stroke-linecap="round" stroke-linejoin="round"/>
<path d="M220.044 202.909L215.382 206.609" stroke="#B880FF" stroke-width="1.2" stroke-linecap="round" stroke-linejoin="round"/>
<path d="M204.328 199.635L199.385 203.146" stroke="#B880FF" stroke-width="1.2" stroke-linecap="round" stroke-linejoin="round"/>
<path d="M189.444 196.542L184.258 199.879" stroke="#B880FF" stroke-width="1.2" stroke-linecap="round" stroke-linejoin="round"/>
<path d="M175.323 193.601L169.929 196.779" stroke="#B880FF" stroke-width="1.2" stroke-linecap="round" stroke-linejoin="round"/>
<path d="M236.666 206.365L232.322 210.271" stroke="#B880FF" stroke-width="1.2" stroke-linecap="round" stroke-linejoin="round"/>
<path d="M172.06 218.311L122.49 205.621C122.179 205.543 121.898 205.369 121.687 205.129C121.476 204.885 121.343 204.585 121.31 204.267C121.276 203.949 121.339 203.623 121.491 203.342C121.643 203.061 121.879 202.832 122.168 202.687L130.24 198.599C131.583 197.919 133.126 197.734 134.595 198.078L183.78 209.602C184.076 209.672 184.346 209.824 184.561 210.042C184.772 210.26 184.916 210.538 184.975 210.837C185.035 211.137 185.005 211.448 184.89 211.729C184.776 212.01 184.583 212.254 184.335 212.432L177.347 217.349C176.588 217.881 175.723 218.248 174.809 218.414C173.895 218.581 172.959 218.547 172.06 218.314V218.311Z" stroke="#B880FF" stroke-width="1.2" stroke-linecap="round" stroke-linejoin="round"/>
<path d="M291.745 111.453L134.488 104.59L134.784 102.699L292.166 108.867L291.745 111.453Z" fill="white"/>
<path d="M281.238 176.202L126.452 154.045L126.756 152.181L281.637 173.757L281.238 176.202V176.202Z" fill="white"/>
<path d="M166.322 104.453L157.68 157.701L159.87 158.056L168.512 104.808L166.322 104.453Z" fill="white"/>
<path d="M223.869 107.22L214.405 165.525L216.595 165.88L226.059 107.575L223.869 107.22V107.22Z" fill="white"/>
<path d="M290.897 42.9479L150.033 51.505C148.043 51.6271 146.152 52.4188 144.672 53.758C143.192 55.0972 142.212 56.8989 141.894 58.8671L123.411 172.732L129.634 173.897L148.353 58.6044L292.077 51.8453L268.082 199.809L277.131 201.5L301.038 54.165C301.271 52.7332 301.178 51.2645 300.768 49.8735C300.357 48.4824 299.636 47.1987 298.663 46.1221C297.69 45.0456 296.484 44.2021 295.141 43.6508C293.798 43.1033 292.344 42.8628 290.897 42.9516V42.9479Z" fill="black" stroke="black" stroke-width="1.2" stroke-linecap="round" stroke-linejoin="round"/>
<path d="M277.131 201.503L301.241 52.859C301.474 51.4273 301.382 49.9586 300.971 48.5676C300.56 47.1765 299.839 45.8928 298.866 44.8162C297.893 43.7396 296.687 42.8961 295.344 42.3449C294.001 41.7974 292.551 41.5569 291.101 41.6457" stroke="#B880FF" stroke-width="1.2" stroke-linecap="round" stroke-linejoin="round"/>
<path d="M117.873 76.4993L91.6504 76.8359L141.898 58.8709L166.219 57.7314L117.873 76.4993V76.4993Z" fill="black" stroke="black" stroke-width="1.2" stroke-linecap="round" stroke-linejoin="round"/>
<path d="M147.255 76.1183L117.873 76.4956L166.219 57.7278L192.974 56.4736L147.258 76.1146L147.255 76.1183Z" fill="white" stroke="black" stroke-width="1.2" stroke-linecap="round" stroke-linejoin="round"/>
<path d="M180.41 75.6889L147.255 76.118L192.97 56.4771L222.537 55.0972L180.41 75.6926V75.6889Z" fill="black" stroke="black" stroke-width="1.2" stroke-linecap="round" stroke-linejoin="round"/>
<path d="M218.112 75.2044L180.41 75.6927L222.537 55.101L255.385 53.5657L218.112 75.2081V75.2044Z" fill="white" stroke="black" stroke-width="1.2" stroke-linecap="round" stroke-linejoin="round"/>
<path d="M261.364 74.6456L218.112 75.2005L255.385 53.5581L292.092 51.8416L261.364 74.6456Z" fill="black" stroke="black" stroke-width="1.2" stroke-linecap="round" stroke-linejoin="round"/>
<path d="M117.921 76.4956L91.6504 76.836V82.0597C91.6504 85.4855 92.9896 88.7781 95.3795 91.2309C97.7732 93.6837 101.029 95.1044 104.451 95.1932C106.204 95.2376 107.947 94.9305 109.582 94.2942C111.214 93.6541 112.705 92.696 113.959 91.4714C115.217 90.2469 116.212 88.7855 116.896 87.1688C117.577 85.5521 117.928 83.817 117.928 82.0634L117.921 76.4993V76.4956Z" fill="black" stroke="black" stroke-width="1.2" stroke-linecap="round" stroke-linejoin="round"/>
<path d="M147.351 76.1182L117.936 76.4955V81.2088C117.936 85.0415 119.434 88.7262 122.109 91.4713C124.784 94.2164 128.428 95.8109 132.26 95.9108C134.225 95.9626 136.178 95.6185 138.006 94.9045C139.833 94.1905 141.502 93.1139 142.908 91.7451C144.314 90.3763 145.431 88.7373 146.197 86.9283C146.959 85.1192 147.355 83.1769 147.355 81.2125V76.1219L147.351 76.1182Z" fill="white" stroke="black" stroke-width="1.2" stroke-linecap="round" stroke-linejoin="round"/>
<path d="M180.503 75.7L147.351 76.118V80.1543C147.351 84.4753 149.038 88.6262 152.053 91.7228C155.068 94.8193 159.175 96.6173 163.492 96.732C165.704 96.7875 167.906 96.4027 169.966 95.5925C172.027 94.786 173.906 93.5725 175.49 92.0261C177.073 90.4797 178.335 88.6336 179.197 86.5952C180.059 84.5567 180.499 82.3666 180.503 80.1506V75.6963V75.7Z" fill="black" stroke="black" stroke-width="1.2" stroke-linecap="round" stroke-linejoin="round"/>
<path d="M218.182 75.2007L180.502 75.7001V78.8114C180.502 83.7208 182.423 88.434 185.848 91.9486C189.274 95.4631 193.936 97.5053 198.841 97.6348C201.357 97.6977 203.858 97.2611 206.2 96.3436C208.541 95.4261 210.676 94.0499 212.478 92.2926C214.279 90.539 215.711 88.4377 216.688 86.1218C217.664 83.8059 218.168 81.316 218.171 78.8003L218.186 75.2007H218.182Z" fill="white" stroke="black" stroke-width="1.2" stroke-linecap="round" stroke-linejoin="round"/>
<path d="M261.364 74.6458L218.179 75.2007V77.0912C218.179 82.7219 220.376 88.1269 224.309 92.1594C228.238 96.192 233.588 98.5301 239.215 98.6744C254.497 98.1527 258.545 88.138 259.666 85.4817C260.787 82.8255 261.364 79.9731 261.364 77.0912V74.6458V74.6458Z" fill="black" stroke="black" stroke-width="1.2" stroke-linecap="round" stroke-linejoin="round"/>
<path d="M254.501 70.2617L292.329 92.7476" stroke="black" stroke-width="1.2" stroke-linecap="round" stroke-linejoin="round"/>
<path d="M218.183 75.2043L261.368 74.6494" stroke="#B880FF" stroke-width="1.2" stroke-linecap="round" stroke-linejoin="round"/>
<path d="M147.336 76.1181L180.503 75.6926" stroke="#B880FF" stroke-width="1.2" stroke-linecap="round" stroke-linejoin="round"/>
<path d="M91.6504 76.8359L117.921 76.4993" stroke="#B880FF" stroke-width="1.2" stroke-linecap="round" stroke-linejoin="round"/>
<path d="M168.29 106.066L223.643 108.482L214.568 164.412L160.059 156.82L168.294 106.066H168.29Z" fill="#B880FF"/>
<path d="M231.545 164.064L212.848 161.53L206.799 187.793L225.278 191.252L231.545 164.064Z" fill="white" stroke="black" stroke-width="1.2" stroke-linecap="round" stroke-linejoin="round"/>
<path d="M230.953 163.143L212.137 160.228L206.089 186.494L224.69 190.331L230.953 163.143V163.143Z" fill="white" stroke="black" stroke-width="1.2" stroke-linecap="round" stroke-linejoin="round"/>
<path d="M230.265 162.133L211.819 158.744L205.771 185.011L224.002 189.321L230.265 162.133V162.133Z" fill="white" stroke="black" stroke-width="1.2" stroke-linecap="round" stroke-linejoin="round"/>
<path d="M231.545 164.064L230.265 162.133L224.002 189.325L225.282 191.256L231.549 164.064H231.545Z" fill="white" stroke="black" stroke-width="1.2" stroke-linecap="round" stroke-linejoin="round"/>
<path d="M181.764 171.352L179.167 182.621L197.65 186.08L200.525 173.598L181.76 171.352H181.764Z" fill="white" stroke="black" stroke-width="1.2" stroke-linecap="round" stroke-linejoin="round"/>
<path d="M181.468 169.232L178.682 181.33L197.073 185.259L199.947 172.776L181.468 169.232Z" fill="white" stroke="black" stroke-width="1.2" stroke-linecap="round" stroke-linejoin="round"/>
<path d="M181.024 167.986L178.235 180.083L196.492 184.315L199.367 171.833L181.021 167.989L181.024 167.986Z" fill="white" stroke="black" stroke-width="1.2" stroke-linecap="round" stroke-linejoin="round"/>
<path d="M199.37 171.829L196.496 184.312L197.65 186.084L200.524 173.601L199.37 171.833V171.829Z" fill="white" stroke="black" stroke-width="1.2" stroke-linecap="round" stroke-linejoin="round"/>
<path d="M153.699 170.908L152.168 177.567L170.651 181.026L172.319 173.239L153.699 170.908Z" fill="white" stroke="black" stroke-width="1.2" stroke-linecap="round" stroke-linejoin="round"/>
<path d="M153.537 168.448L151.731 176.298L170.055 180.19L171.727 172.403L153.537 168.448V168.448Z" fill="white" stroke="black" stroke-width="1.2" stroke-linecap="round" stroke-linejoin="round"/>
<path d="M153.37 167.105L151.561 174.955L169.467 179.354L171.135 171.567L153.37 167.101V167.105Z" fill="white" stroke="black" stroke-width="1.2" stroke-linecap="round" stroke-linejoin="round"/>
<path d="M171.135 171.57L169.467 179.358L170.651 181.026L172.319 173.239L171.135 171.57Z" fill="white" stroke="black" stroke-width="1.2" stroke-linecap="round" stroke-linejoin="round"/>
<path d="M252.829 196.487L234.361 192.954L246.084 142.052L264.945 143.872L252.825 196.487H252.829Z" fill="white" stroke="black" stroke-width="1.2" stroke-linecap="round" stroke-linejoin="round"/>
<path d="M252.137 195.555L234.365 191.178L246.395 140.357L264.261 142.936L252.141 195.555H252.137Z" fill="white" stroke="black" stroke-width="1.2" stroke-linecap="round" stroke-linejoin="round"/>
<path d="M251.445 194.467L234.002 189.413L246.085 138.618L263.565 141.848L251.445 194.467Z" fill="white" stroke="black" stroke-width="1.2" stroke-linecap="round" stroke-linejoin="round"/>
<path d="M251.445 194.467L252.829 196.487L264.949 143.872L263.565 141.848L251.445 194.467Z" fill="white" stroke="black" stroke-width="1.2" stroke-linecap="round" stroke-linejoin="round"/>
<path d="M276.821 66.9099L303.324 90.7498L275.219 138.115L248.715 114.279" fill="#B880FF"/>
<path d="M276.821 66.9099L303.324 90.7498L275.219 138.115L248.715 114.279" stroke="black" stroke-width="1.2" stroke-linecap="round" stroke-linejoin="round"/>
<path d="M280.087 137.22L248.715 114.279L276.821 66.9099L308.193 89.8509L280.087 137.22Z" fill="#B880FF" stroke="black" stroke-width="1.2" stroke-linecap="round" stroke-linejoin="round"/>
<path d="M311.992 87.757L276.835 66.8989L248.733 114.268L283.89 135.126L311.992 87.757V87.757Z" fill="white" stroke="black" stroke-width="1.2" stroke-linecap="round" stroke-linejoin="round"/>
<path d="M280.346 116.088C288.666 116.088 295.411 109.344 295.411 101.024C295.411 92.7033 288.666 85.959 280.346 85.959C272.026 85.959 265.281 92.7033 265.281 101.024C265.281 109.344 272.026 116.088 280.346 116.088Z" stroke="black" stroke-width="1.2" stroke-linecap="round" stroke-linejoin="round"/>
<path d="M298.822 98.1527C298.4 95.4299 297.383 92.8291 295.836 90.5464C294.294 88.2638 292.259 86.3511 289.887 84.9453" stroke="black" stroke-width="1.2" stroke-linecap="round" stroke-linejoin="round"/>
<path d="M295.226 98.7112C294.885 96.5137 294.068 94.4198 292.821 92.5811C291.574 90.7424 289.939 89.1997 288.026 88.0676L280.343 101.016L295.226 98.7112Z" fill="#B880FF" stroke="black" stroke-width="1.2" stroke-linecap="round" stroke-linejoin="round"/>
<path d="M292.64 109.721C292.873 109.396 293.095 109.063 293.298 108.711C295.089 105.707 295.773 102.17 295.23 98.7151L280.346 101.024L292.64 109.721Z" fill="black" stroke="black" stroke-width="1.2" stroke-linecap="round" stroke-linejoin="round"/>
<path d="M280.346 106.799C283.535 106.799 286.121 104.213 286.121 101.024C286.121 97.8345 283.535 95.2485 280.346 95.2485C277.157 95.2485 274.571 97.8345 274.571 101.024C274.571 104.213 277.157 106.799 280.346 106.799Z" fill="white" stroke="black" stroke-width="1.2" stroke-linecap="round" stroke-linejoin="round"/>
<path d="M267.435 105.833L304.449 109.958L309.391 167.29L272.377 163.165" fill="#B880FF"/>
<path d="M267.435 105.833L304.449 109.958L309.391 167.29L272.377 163.165" stroke="black" stroke-width="1.2" stroke-linecap="round" stroke-linejoin="round"/>
<path d="M312.984 163.568L272.381 163.169L267.438 105.837L308.041 106.24L312.984 163.572V163.568Z" fill="#B880FF" stroke="black" stroke-width="1.2" stroke-linecap="round" stroke-linejoin="round"/>
<path d="M309.994 102.152L267.442 105.822L272.388 163.154L314.941 159.484L309.994 102.152V102.152Z" fill="white" stroke="black" stroke-width="1.2" stroke-linecap="round" stroke-linejoin="round"/>
<path d="M291.182 148.404C299.873 148.404 306.92 141.36 306.92 132.666C306.92 123.972 299.873 116.928 291.182 116.928C282.492 116.928 275.444 123.976 275.444 132.666C275.444 141.356 282.488 148.404 291.182 148.404Z" stroke="black" stroke-width="1.2" stroke-linecap="round" stroke-linejoin="round"/>
<path d="M305.13 118.992C303.113 116.932 300.668 115.348 297.967 114.346C295.267 113.347 292.377 112.958 289.506 113.206" stroke="black" stroke-width="1.2" stroke-linecap="round" stroke-linejoin="round"/>
<path d="M302.421 121.649C300.797 119.991 298.825 118.711 296.65 117.908C294.475 117.102 292.144 116.791 289.832 116.991L291.186 132.67L302.421 121.652V121.649Z" fill="#B880FF" stroke="black" stroke-width="1.2" stroke-linecap="round" stroke-linejoin="round"/>
<path d="M306.916 132.573C306.916 132.155 306.902 131.737 306.865 131.315C306.554 127.671 304.978 124.249 302.41 121.645L291.175 132.662L306.916 132.57V132.573Z" fill="black" stroke="black" stroke-width="1.2" stroke-linecap="round" stroke-linejoin="round"/>
<path d="M291.182 138.703C294.515 138.703 297.216 136.003 297.216 132.669C297.216 129.336 294.515 126.635 291.182 126.635C287.849 126.635 285.148 129.336 285.148 132.669C285.148 136.003 287.849 138.703 291.182 138.703Z" fill="white" stroke="black" stroke-width="1.2" stroke-linecap="round" stroke-linejoin="round"/>
<path d="M181.402 135.444L209.481 123.299" stroke="white" stroke-width="1.2" stroke-linecap="round" stroke-linejoin="round"/>
<path d="M177.746 146.428L190.502 140.912" stroke="white" stroke-width="1.2" stroke-linecap="round" stroke-linejoin="round"/>
<path d="M214.701 95.0008L217.716 93.1177" stroke="white" stroke-width="1.2" stroke-linecap="round" stroke-linejoin="round"/>
<path d="M213.325 102.115L223.643 95.6702" stroke="white" stroke-width="1.2" stroke-linecap="round" stroke-linejoin="round"/>
<path d="M141.894 58.867L292.092 51.8416" stroke="#B880FF" stroke-width="1.2" stroke-linecap="round" stroke-linejoin="round"/>
<path d="M158.006 143.017C152.153 139.292 146.263 135.551 140.329 131.796C146.115 123.879 151.147 115.441 155.364 106.584C161.694 110.443 167.983 114.294 174.224 118.134C169.593 126.906 164.165 135.237 158.006 143.014V143.017Z" fill="white" stroke="black" stroke-width="1.2" stroke-linecap="round" stroke-linejoin="round"/>
<path d="M151.398 131.904L146.959 129.107C148.786 126.447 150.514 123.757 152.146 121.042L156.674 123.865C155.009 126.573 153.252 129.255 151.395 131.904H151.398Z" fill="black" stroke="black" stroke-width="1.2" stroke-linecap="round" stroke-linejoin="round"/>
<path d="M158.32 136.273L153.899 133.483C157.069 129.011 160.011 124.379 162.704 119.606L167.28 122.444C164.531 127.205 161.542 131.822 158.32 136.277V136.273Z" fill="white" stroke="black" stroke-width="1.2" stroke-linecap="round" stroke-linejoin="round"/>
<path d="M164.913 126.403L160.384 123.58C161.18 122.259 161.953 120.935 162.704 119.603L167.277 122.44C166.511 123.768 165.723 125.089 164.909 126.403H164.913Z" fill="#B880FF" stroke="black" stroke-width="1.2" stroke-linecap="round" stroke-linejoin="round"/>
<path d="M145.841 128.404C150.429 131.293 154.994 134.172 159.53 137.043" stroke="black" stroke-width="1.2" stroke-linecap="round" stroke-linejoin="round"/>
<path d="M125.927 165.57L104.251 151.149L122.497 114.49L144.173 128.911L125.927 165.57Z" fill="white" stroke="black" stroke-width="1.2" stroke-linecap="round" stroke-linejoin="round"/>
<path d="M128.786 165.429L104.251 151.149L122.497 114.49L147.033 128.77L128.786 165.429Z" fill="white" stroke="black" stroke-width="1.2" stroke-linecap="round" stroke-linejoin="round"/>
<path d="M149.156 127.908L122.02 114.342L103.744 150.905L130.88 164.467L149.156 127.905V127.908Z" fill="white" stroke="black" stroke-width="1.2" stroke-linecap="round" stroke-linejoin="round"/>
<path d="M123.97 150.375C129.926 152.037 136.101 148.555 137.765 142.599C139.427 136.643 135.945 130.468 129.989 128.803C124.033 127.142 117.858 130.624 116.193 136.58C114.529 142.536 118.014 148.711 123.97 150.375V150.375Z" stroke="black" stroke-width="1.2" stroke-linecap="round" stroke-linejoin="round"/>
<path d="M136.57 145.363C136.718 145.115 136.87 144.848 137.003 144.578C138.165 142.251 138.479 139.591 137.887 137.057L126.977 139.588L136.57 145.363Z" fill="black" stroke="black" stroke-width="1.2" stroke-linecap="round" stroke-linejoin="round"/>
<path d="M123.448 128.955L126.981 139.58L137.891 137.05C137.54 135.533 136.874 134.105 135.938 132.858C135.002 131.612 133.818 130.576 132.456 129.814C131.095 129.051 129.593 128.582 128.043 128.434C126.493 128.286 124.924 128.463 123.448 128.959V128.955Z" fill="#B880FF" stroke="black" stroke-width="1.2" stroke-linecap="round" stroke-linejoin="round"/>
<path d="M125.827 143.727C128.113 144.364 130.481 143.028 131.117 140.746C131.753 138.463 130.418 136.092 128.135 135.455C125.853 134.819 123.481 136.154 122.845 138.437C122.209 140.72 123.544 143.091 125.827 143.727Z" fill="white" stroke="black" stroke-width="1.2" stroke-linecap="round" stroke-linejoin="round"/>
<path d="M262.522 109.943L238.245 116.473L248.904 118.46C247.513 119.558 246.088 120.642 244.649 121.689C218.127 140.553 186.648 152.377 154.284 155.855L154.321 156.299C163.696 155.688 173.011 154.393 182.197 152.425C196.033 149.454 209.503 144.978 222.367 139.081C232.985 134.327 243.243 128.633 252.703 121.822L254.571 133.683L262.522 109.939V109.943Z" fill="black" stroke="black" stroke-width="1.2" stroke-linecap="round" stroke-linejoin="round"/>
<path d="M74.3808 150.831C69.5751 142.825 64.7953 134.527 60.0339 125.933C66.486 119.743 72.9898 113.021 79.5417 105.766C87.259 111.989 95.3758 117.697 103.84 122.858C94.6655 132.84 84.8247 142.185 74.3808 150.831Z" fill="white" stroke="black" stroke-width="1.2" stroke-linecap="round" stroke-linejoin="round"/>
<path d="M69.945 149.466C65.6535 141.138 61.3843 132.581 57.1409 123.791C64.0516 118.13 71.0586 111.852 78.0508 104.96C85.3685 111.582 93.0488 117.794 101.055 123.565C91.3914 133.014 80.9845 141.671 69.945 149.462V149.466Z" fill="white" stroke="black" stroke-width="1.2" stroke-linecap="round" stroke-linejoin="round"/>
<path d="M66.0421 147.719C62.1613 139.185 58.299 130.454 54.4514 121.53C62.0688 116.003 69.3902 110.076 76.3861 103.78C83.7297 111.016 91.0696 117.605 98.3207 123.506C88.306 132.525 77.5033 140.627 66.0458 147.723L66.0421 147.719Z" fill="white" stroke="black" stroke-width="1.2" stroke-linecap="round" stroke-linejoin="round"/>
<path d="M62.398 128.911C61.7025 127.524 61.007 126.133 60.3152 124.734C64.7953 121.493 69.2903 117.994 73.8075 114.242C74.8026 115.474 75.7941 116.695 76.7893 117.901C71.9836 121.86 67.189 125.53 62.398 128.907V128.911Z" fill="#B880FF" stroke="black" stroke-width="1.2" stroke-linecap="round" stroke-linejoin="round"/>
<path d="M62.398 128.911C61.7025 127.524 61.007 126.133 60.3152 124.738C61.6137 123.794 62.9197 122.829 64.233 121.841C65.0136 123.203 65.7905 124.553 66.5674 125.899C65.1764 126.928 63.7854 127.931 62.3943 128.915L62.398 128.911Z" fill="black" stroke="black" stroke-width="1.2" stroke-linecap="round" stroke-linejoin="round"/>
<path d="M66.4156 136.861C65.5906 135.252 64.7693 133.631 63.9517 132.004C70.2631 127.612 76.6189 122.718 82.9489 117.32C84.2474 118.67 85.5423 119.999 86.8297 121.308C80.3148 126.858 73.5002 132.048 66.4193 136.857L66.4156 136.861Z" fill="#B880FF" stroke="black" stroke-width="1.2" stroke-linecap="round" stroke-linejoin="round"/>
<path d="M66.4156 136.861C65.5906 135.252 64.7693 133.635 63.9517 132.004C67.5328 129.514 71.1251 126.861 74.7211 124.042C75.805 125.541 76.8853 127.024 77.9693 128.497C74.1143 131.471 70.2631 134.257 66.4156 136.861V136.861Z" fill="black" stroke="black" stroke-width="1.2" stroke-linecap="round" stroke-linejoin="round"/>
<path d="M59.4863 123.058C62.1648 128.489 64.8581 133.828 67.5588 139.077" stroke="black" stroke-width="1.2" stroke-linecap="round" stroke-linejoin="round"/>
<path d="M148.157 15.512C169.43 25.0383 183.987 31.6161 199.067 48.8302C207.506 58.4638 206.736 67.0727 200.225 67.6202C189.341 68.5377 157.229 42.4595 141.661 33.9283" fill="#B880FF"/>
<path d="M153.74 18.0239C179.844 31.7937 200.887 55.6188 202.448 58.8596C204.354 62.8181 204.646 64.7345 204.646 64.7345C204.646 64.7345 209 58 195.5 44.5C180 29 153.74 18.0239 153.74 18.0239Z" fill="white"/>
<path d="M148.157 15.512C169.43 25.0383 183.987 31.6161 199.067 48.8302C207.506 58.4638 206.736 67.0727 200.225 67.6202C189.341 68.5377 157.229 42.4595 141.661 33.9283" stroke="black" stroke-width="1.2" stroke-linecap="round" stroke-linejoin="round"/>
<path d="M138.631 22.1785C161.709 32.9738 185.863 54.4904 187.558 63.5839C189.219 72.485 181.945 73.2767 177.047 71.1384C172.149 69 145.941 52.9292 124.551 47.9829" fill="#B880FF"/>
<path d="M141.665 23.6619C168.161 44.7197 186.281 63.6356 187.41 68.5338C187.41 66 191 62.5 174.835 46.8507C156.984 32.7369 141.665 23.6619 141.665 23.6619Z" fill="white"/>
<path d="M138.631 22.1785C161.709 32.9738 185.863 54.4904 187.558 63.5839C189.219 72.485 181.945 73.2767 177.047 71.1384C172.149 69 145.941 52.9292 124.551 47.9829" stroke="black" stroke-width="1.2" stroke-linecap="round" stroke-linejoin="round"/>
</svg>
